# xmcd CD database file
#
# Track frame offsets:
#	150
#	20557
#	40237
#	60632
#
# Disc length: 1070 seconds
#
# Revision: 0
# Processed by: cddbd v1.5PL3 Copyright (c) Steve Scherf et al.
# Submitted via: CDex 1.50beta9
#
DISCID=2d042c04
DTITLE=稲垣　潤一 - クリスマスキャロルの頃には
DYEAR=1900
DGENRE=JPop
TTITLE0=クリスマスキャロルの頃には
TTITLE1=メリークリスマスが言えない
TTITLE2=クリスマスキャロルの頃には　カラオケ
TTITLE3=メリークリスマスが言えない　カラオケ
EXTD=
EXTT0=
EXTT1=
EXTT2=
EXTT3=
PLAYORDER=
